<svg width="128" height="128" viewBox="0 0 128 128" fill="none" xmlns="http://www.w3.org/2000/svg">
<circle cx="64" cy="64" r="64" fill="#00ABC2"/>
<path d="M64.0001 63.5647C70.0771 63.5647 74.999 58.1908 74.999 51.6116C74.999 45.1328 70.0771 39.9849 64.0001 39.9849C57.9482 39.9849 52.9761 45.2081 53.0012 51.6618C53.0263 58.216 57.9231 63.5647 64.0001 63.5647ZM64.0001 59.1702C60.5347 59.1702 57.5966 55.8806 57.5966 51.6618C57.5715 47.5435 60.5096 44.3795 64.0001 44.3795C67.5157 44.3795 70.4035 47.4933 70.4035 51.6116C70.4035 55.8303 67.4906 59.1702 64.0001 59.1702ZM48.3304 86.9185H79.6446C83.9889 86.9185 86.0732 85.5374 86.0732 82.5742C86.0732 75.6685 77.4599 66.4777 64.0001 66.4777C50.5402 66.4777 41.9019 75.6685 41.9019 82.5742C41.9019 85.5374 43.9861 86.9185 48.3304 86.9185ZM47.552 82.524C46.9493 82.524 46.7233 82.3231 46.7233 81.8711C46.7233 78.029 52.9259 70.8722 64.0001 70.8722C75.0492 70.8722 81.2517 78.029 81.2517 81.8711C81.2517 82.3231 81.0257 82.524 80.4231 82.524H47.552Z" fill="#1C1C1E"/>
</svg>
