<svg width="390" height="130" viewBox="0 0 390 130" fill="none" xmlns="http://www.w3.org/2000/svg">
<path d="M0.467619 1.15167C0.730509 0.543126 1.08022 0.149049 1.45907 0.0345579C1.83791 -0.0799327 2.22325 0.0919652 2.55152 0.52186C61.7198 76.3467 181.609 63.9716 249.414 53.4544C338.519 39.6308 576.112 -52.0957 641.618 79.4956C641.793 79.8591 641.916 80.3282 641.969 80.8438C642.023 81.3594 642.006 81.8983 641.92 82.3925C641.847 82.8113 641.731 83.1874 641.581 83.4913C641.43 83.7951 641.25 84.0184 641.053 84.1435C640.857 84.2686 640.65 84.2923 640.449 84.2125C640.248 84.1327 640.057 83.9516 639.894 83.6836C591.26 6.63069 426.603 52.1948 361.988 54.8399C270.627 69.5451 177.829 93.2561 86.5254 64.6644C57.4802 54.4305 25.6756 42.9372 0.740679 6.72514C0.537828 6.42806 0.367215 6.03703 0.240879 5.57968C0.114543 5.12232 0.0355648 4.60982 0.00952288 4.07827C-0.016519 3.54673 0.0110092 3.00914 0.0901631 2.50345C0.169317 1.99777 0.298168 1.53632 0.467619 1.15167Z" fill="#00ABC2"/>
<path d="M35.1898 83.778C83.3494 110.921 133.377 125.752 182.988 118.416C183.092 118.421 183.192 118.508 183.269 118.661C183.346 118.814 183.395 119.023 183.407 119.249C183.419 119.475 183.394 119.703 183.335 119.891C183.277 120.08 183.19 120.215 183.089 120.273C133.221 140.765 81.7034 128.721 34.9311 85.6358C34.8754 85.5986 34.8236 85.5377 34.7787 85.4567C34.7338 85.3756 34.6966 85.276 34.6692 85.1634C34.6418 85.0508 34.6249 84.9275 34.6193 84.8005C34.6136 84.6736 34.6195 84.5455 34.6365 84.4235C34.6535 84.3016 34.6813 84.1881 34.7183 84.0896C34.7553 83.9912 34.8007 83.9096 34.8521 83.8497C34.9035 83.7897 34.9598 83.7525 35.0177 83.7402C35.0756 83.7279 35.1341 83.7408 35.1898 83.778Z" fill="#00ABC2"/>
<path d="M195.406 109.127C200.1 106.542 204.942 105.481 209.777 105.978C210.201 106.024 210.601 106.41 210.903 107.063C211.204 107.715 211.386 108.587 211.412 109.514C211.439 110.441 211.309 111.356 211.047 112.086C210.785 112.816 210.41 113.31 209.993 113.472C205.292 115.429 200.521 116.482 195.736 116.621C195.305 116.63 194.887 116.285 194.566 115.653C194.245 115.021 194.044 114.147 194.002 113.206C193.961 112.264 194.082 111.323 194.342 110.568C194.601 109.813 194.981 109.298 195.406 109.127Z" fill="#00ABC2"/>
</svg>
