<svg width="334" height="53" viewBox="0 0 334 53" fill="none" xmlns="http://www.w3.org/2000/svg">
<path d="M0.243278 0.469528C0.380047 0.221428 0.561985 0.0607659 0.759079 0.014089C0.956172 -0.0325879 1.15665 0.0374935 1.32742 0.212758C32.1097 31.126 94.4817 26.0807 129.758 21.7929C176.114 16.1572 299.722 -21.239 333.801 32.4097C333.893 32.558 333.956 32.7492 333.984 32.9594C334.012 33.1696 334.003 33.3893 333.958 33.5908C333.921 33.7615 333.86 33.9149 333.782 34.0387C333.704 34.1626 333.61 34.2536 333.508 34.3046C333.405 34.3557 333.298 34.3653 333.193 34.3328C333.088 34.3002 332.989 34.2264 332.904 34.1171C307.602 2.70328 221.94 21.2794 188.324 22.3578C140.793 28.353 92.5153 38.0198 45.0148 26.3632C29.904 22.1909 13.3577 17.5051 0.385338 2.74179C0.279805 2.62067 0.191043 2.46125 0.125317 2.27479C0.0595908 2.08833 0.0185026 1.87939 0.00495427 1.66268C-0.00859402 1.44597 0.00572752 1.2268 0.0469073 1.02064C0.088087 0.814475 0.155121 0.626345 0.243278 0.469528Z" fill="#00ABC2"/>
<path d="M18.3082 34.1559C43.3631 45.222 69.3901 51.2686 95.2003 48.2774C95.2543 48.2794 95.3061 48.3149 95.3462 48.3773C95.3862 48.4397 95.4118 48.5249 95.4181 48.6171C95.4245 48.7093 95.4112 48.8023 95.3808 48.879C95.3504 48.9558 95.3049 49.0111 95.2526 49.0348C69.3086 57.389 42.5068 52.4788 18.1736 34.9133C18.1446 34.8982 18.1177 34.8734 18.0943 34.8403C18.0709 34.8073 18.0515 34.7666 18.0373 34.7207C18.0231 34.6748 18.0142 34.6246 18.0113 34.5728C18.0084 34.521 18.0115 34.4688 18.0203 34.4191C18.0291 34.3694 18.0436 34.3231 18.0628 34.283C18.0821 34.2428 18.1057 34.2096 18.1325 34.1851C18.1592 34.1607 18.1885 34.1455 18.2186 34.1405C18.2488 34.1355 18.2792 34.1407 18.3082 34.1559Z" fill="#00ABC2"/>
<path d="M101.658 44.4904C104.1 43.4367 106.62 43.0042 109.135 43.2067C109.355 43.2256 109.564 43.383 109.72 43.6489C109.877 43.9148 109.972 44.2706 109.986 44.6484C109.999 45.0261 109.932 45.3994 109.796 45.6971C109.659 45.9947 109.464 46.1958 109.247 46.262C106.801 47.0598 104.319 47.4893 101.83 47.5458C101.606 47.5497 101.388 47.4089 101.221 47.1511C101.054 46.8933 100.95 46.5374 100.928 46.1535C100.906 45.7697 100.969 45.386 101.105 45.078C101.24 44.7701 101.437 44.5604 101.658 44.4904Z" fill="#00ABC2"/>
</svg>
